<svg width="34" height="34" viewBox="0 0 34 34" fill="none" xmlns="http://www.w3.org/2000/svg">
<rect width="34" height="34" rx="7.08333" fill="#251044"/>
<rect x="0.5" y="0.5" width="33" height="33" rx="6.58333" stroke="url(#paint0_linear_818_18892)" stroke-opacity="0.2"/>
<path d="M22.6667 3.54163L22.9847 4.52053H24.014L23.1813 5.12552L23.4994 6.10441L22.6667 5.49942L21.834 6.10441L22.152 5.12552L21.3193 4.52053H22.3486L22.6667 3.54163Z" fill="#FFF9D1"/>
<path d="M22.6667 3.54163L22.9847 4.52053H24.014L23.1813 5.12552L23.4994 6.10441L22.6667 5.49942L21.834 6.10441L22.152 5.12552L21.3193 4.52053H22.3486L22.6667 3.54163Z" fill="url(#paint1_linear_818_18892)"/>
<path d="M31.1667 22.6666L31.4847 23.6455H32.514L31.6813 24.2505L31.9994 25.2294L31.1667 24.6244L30.334 25.2294L30.652 24.2505L29.8193 23.6455H30.8486L31.1667 22.6666Z" fill="#FFF9D1"/>
<path d="M31.1667 22.6666L31.4847 23.6455H32.514L31.6813 24.2505L31.9994 25.2294L31.1667 24.6244L30.334 25.2294L30.652 24.2505L29.8193 23.6455H30.8486L31.1667 22.6666Z" fill="url(#paint2_linear_818_18892)"/>
<path d="M9.91667 28.3334L10.2347 29.3123H11.264L10.4313 29.9172L10.7494 30.8961L9.91667 30.2912L9.08397 30.8961L9.40203 29.9172L8.56934 29.3123H9.59861L9.91667 28.3334Z" fill="#FFF9D1"/>
<path d="M9.91667 28.3334L10.2347 29.3123H11.264L10.4313 29.9172L10.7494 30.8961L9.91667 30.2912L9.08397 30.8961L9.40203 29.9172L8.56934 29.3123H9.59861L9.91667 28.3334Z" fill="url(#paint3_linear_818_18892)"/>
<mask id="mask0_818_18892" style="mask-type:alpha" maskUnits="userSpaceOnUse" x="7" y="7" width="20" height="20">
<rect x="7" y="7" width="20" height="20" fill="#D9D9D9"/>
</mask>
<g mask="url(#mask0_818_18892)">
<path d="M20.9167 19.0833L24.0834 16.375L26.5834 16.5833L22.9167 19.7708L24.0001 24.5L21.8751 23.2083L20.9167 19.0833ZM18.9584 13L18.0834 10.9583L19.0417 8.66666L20.9584 13.1875L18.9584 13ZM10.6042 24.5L11.9584 18.6458L7.41675 14.7083L13.4167 14.1875L15.7501 8.66666L18.0834 14.1875L24.0834 14.7083L19.5417 18.6458L20.8959 24.5L15.7501 21.3958L10.6042 24.5Z" fill="url(#paint4_linear_818_18892)"/>
</g>
<defs>
<linearGradient id="paint0_linear_818_18892" x1="0" y1="17" x2="34" y2="17" gradientUnits="userSpaceOnUse">
<stop stop-color="#BF7B25"/>
<stop offset="0.572115" stop-color="#E7DC87"/>
<stop offset="1" stop-color="#AF8D4C"/>
</linearGradient>
<linearGradient id="paint1_linear_818_18892" x1="20.1875" y1="3.54163" x2="24.0833" y2="4.9583" gradientUnits="userSpaceOnUse">
<stop stop-color="#BF7B25"/>
<stop offset="0.572115" stop-color="#E7DC87"/>
<stop offset="1" stop-color="#AF8D4C"/>
</linearGradient>
<linearGradient id="paint2_linear_818_18892" x1="28.6875" y1="22.6666" x2="32.5833" y2="24.0833" gradientUnits="userSpaceOnUse">
<stop stop-color="#BF7B25"/>
<stop offset="0.572115" stop-color="#E7DC87"/>
<stop offset="1" stop-color="#AF8D4C"/>
</linearGradient>
<linearGradient id="paint3_linear_818_18892" x1="7.4375" y1="28.3334" x2="11.3333" y2="29.75" gradientUnits="userSpaceOnUse">
<stop stop-color="#BF7B25"/>
<stop offset="0.572115" stop-color="#E7DC87"/>
<stop offset="1" stop-color="#AF8D4C"/>
</linearGradient>
<linearGradient id="paint4_linear_818_18892" x1="7.41675" y1="16.5833" x2="26.5834" y2="16.5833" gradientUnits="userSpaceOnUse">
<stop stop-color="#BF7B25"/>
<stop offset="0.572115" stop-color="#E7DC87"/>
<stop offset="1" stop-color="#AF8D4C"/>
</linearGradient>
</defs>
</svg>
