<svg width="14" height="14" viewBox="0 0 14 14" fill="none" xmlns="http://www.w3.org/2000/svg">
<path d="M6.99982 13.4545L6.01119 12.5681C4.86346 11.534 3.9146 10.642 3.1646 9.89198C2.4146 9.14198 1.818 8.46868 1.37482 7.87209C0.931641 7.2755 0.621982 6.72721 0.445845 6.22721C0.269709 5.72721 0.181641 5.21584 0.181641 4.69312C0.181641 3.62493 0.539595 2.73289 1.2555 2.01698C1.97141 1.30107 2.86346 0.943115 3.93164 0.943115C4.52255 0.943115 5.08505 1.06812 5.61914 1.31812C6.15323 1.56812 6.61346 1.92039 6.99982 2.37493C7.38619 1.92039 7.84641 1.56812 8.3805 1.31812C8.9146 1.06812 9.4771 0.943115 10.068 0.943115C11.1362 0.943115 12.0282 1.30107 12.7441 2.01698C13.4601 2.73289 13.818 3.62493 13.818 4.69312C13.818 5.21584 13.7299 5.72721 13.5538 6.22721C13.3777 6.72721 13.068 7.2755 12.6248 7.87209C12.1816 8.46868 11.585 9.14198 10.835 9.89198C10.085 10.642 9.13619 11.534 7.98846 12.5681L6.99982 13.4545Z" fill="url(#paint0_linear_818_18758)"/>
<defs>
<linearGradient id="paint0_linear_818_18758" x1="0.181641" y1="7.1988" x2="13.818" y2="7.1988" gradientUnits="userSpaceOnUse">
<stop stop-color="#BF7B25"/>
<stop offset="0.572115" stop-color="#E7DC87"/>
<stop offset="1" stop-color="#AF8D4C"/>
</linearGradient>
</defs>
</svg>
