<svg width="14" height="15" viewBox="0 0 14 15" fill="none" xmlns="http://www.w3.org/2000/svg">
<path d="M6.2043 12.0909H7.39748V11.2386C7.96566 11.1364 8.4543 10.9148 8.86339 10.5739C9.27248 10.233 9.47703 9.72727 9.47703 9.05682C9.47703 8.57955 9.34066 8.14205 9.06794 7.74432C8.79521 7.34659 8.24976 7 7.43157 6.70455C6.74976 6.47727 6.27816 6.27841 6.0168 6.10795C5.75544 5.9375 5.62476 5.70455 5.62476 5.40909C5.62476 5.11364 5.72987 4.88068 5.9401 4.71023C6.15032 4.53977 6.4543 4.45455 6.85203 4.45455C7.21566 4.45455 7.49976 4.54261 7.7043 4.71875C7.90885 4.89489 8.05657 5.11364 8.14748 5.375L9.23839 4.93182C9.11339 4.53409 8.88328 4.1875 8.54805 3.89205C8.21282 3.59659 7.84066 3.43182 7.43157 3.39773V2.54545H6.23839V3.39773C5.67021 3.52273 5.22703 3.77273 4.90885 4.14773C4.59066 4.52273 4.43157 4.94318 4.43157 5.40909C4.43157 5.94318 4.58782 6.375 4.90032 6.70455C5.21282 7.03409 5.7043 7.31818 6.37476 7.55682C7.09066 7.81818 7.58782 8.05114 7.86623 8.25568C8.14464 8.46023 8.28385 8.72727 8.28385 9.05682C8.28385 9.43182 8.15032 9.70739 7.88328 9.88352C7.61623 10.0597 7.29521 10.1477 6.92021 10.1477C6.54521 10.1477 6.21282 10.0312 5.92305 9.7983C5.63328 9.56534 5.42021 9.21591 5.28385 8.75L4.15885 9.19318C4.31794 9.73864 4.5651 10.179 4.90032 10.5142C5.23555 10.8494 5.67021 11.0795 6.2043 11.2045V12.0909ZM6.81794 14.1364C5.87476 14.1364 4.98839 13.9574 4.15885 13.5994C3.3293 13.2415 2.60771 12.7557 1.99407 12.142C1.38044 11.5284 0.894642 10.8068 0.536688 9.97727C0.178733 9.14773 -0.000244141 8.26136 -0.000244141 7.31818C-0.000244141 6.375 0.178733 5.48864 0.536688 4.65909C0.894642 3.82955 1.38044 3.10795 1.99407 2.49432C2.60771 1.88068 3.3293 1.39489 4.15885 1.03693C4.98839 0.678977 5.87476 0.5 6.81794 0.5C7.76112 0.5 8.64748 0.678977 9.47703 1.03693C10.3066 1.39489 11.0282 1.88068 11.6418 2.49432C12.2554 3.10795 12.7412 3.82955 13.0992 4.65909C13.4571 5.48864 13.6361 6.375 13.6361 7.31818C13.6361 8.26136 13.4571 9.14773 13.0992 9.97727C12.7412 10.8068 12.2554 11.5284 11.6418 12.142C11.0282 12.7557 10.3066 13.2415 9.47703 13.5994C8.64748 13.9574 7.76112 14.1364 6.81794 14.1364Z" fill="url(#paint0_linear_818_18785)"/>
<defs>
<linearGradient id="paint0_linear_818_18785" x1="-0.000244141" y1="7.31818" x2="13.6361" y2="7.31818" gradientUnits="userSpaceOnUse">
<stop stop-color="#BF7B25"/>
<stop offset="0.572115" stop-color="#E7DC87"/>
<stop offset="1" stop-color="#AF8D4C"/>
</linearGradient>
</defs>
</svg>
