<svg width="16" height="15" viewBox="0 0 16 15" fill="none" xmlns="http://www.w3.org/2000/svg">
<path d="M2.45463 14.0908V7.69879L1.22736 8.63629L0.40918 7.54538L2.45463 5.9772V3.86356H3.81827V4.93742L7.90918 1.8181L15.4092 7.54538L14.591 8.61924L13.3637 7.69879V14.0908H8.591V9.99992H7.22736V14.0908H2.45463ZM2.45463 3.18174C2.45463 2.61356 2.6535 2.1306 3.05123 1.73288C3.44895 1.33515 3.93191 1.13629 4.50009 1.13629C4.69327 1.13629 4.8552 1.07095 4.98588 0.940263C5.11657 0.809581 5.18191 0.64765 5.18191 0.454468H6.54554C6.54554 1.02265 6.34668 1.5056 5.94895 1.90333C5.55123 2.30106 5.06827 2.49992 4.50009 2.49992C4.30691 2.49992 4.14498 2.56526 4.01429 2.69595C3.88361 2.82663 3.81827 2.98856 3.81827 3.18174H2.45463Z" fill="url(#paint0_linear_818_18797)"/>
<defs>
<linearGradient id="paint0_linear_818_18797" x1="0.40918" y1="7.27265" x2="15.4092" y2="7.27265" gradientUnits="userSpaceOnUse">
<stop stop-color="#BF7B25"/>
<stop offset="0.572115" stop-color="#E7DC87"/>
<stop offset="1" stop-color="#AF8D4C"/>
</linearGradient>
</defs>
</svg>
