<svg width="61" height="60" viewBox="0 0 61 60" fill="none" xmlns="http://www.w3.org/2000/svg">
<rect x="0.5" width="60" height="60" rx="12.5" fill="#251044"/>
<rect x="1.38235" y="0.882353" width="58.2353" height="58.2353" rx="11.6176" stroke="url(#paint0_linear_843_52988)" stroke-opacity="0.2" stroke-width="1.76471"/>
<path d="M40.5 6.25L41.0613 7.97746H42.8776L41.4082 9.04508L41.9695 10.7725L40.5 9.70492L39.0305 10.7725L39.5918 9.04508L38.1224 7.97746H39.9387L40.5 6.25Z" fill="#FFF9D1"/>
<path d="M40.5 6.25L41.0613 7.97746H42.8776L41.4082 9.04508L41.9695 10.7725L40.5 9.70492L39.0305 10.7725L39.5918 9.04508L38.1224 7.97746H39.9387L40.5 6.25Z" fill="url(#paint1_linear_843_52988)"/>
<path d="M55.5 40L56.0613 41.7275H57.8776L56.4082 42.7951L56.9695 44.5225L55.5 43.4549L54.0305 44.5225L54.5918 42.7951L53.1224 41.7275H54.9387L55.5 40Z" fill="#FFF9D1"/>
<path d="M55.5 40L56.0613 41.7275H57.8776L56.4082 42.7951L56.9695 44.5225L55.5 43.4549L54.0305 44.5225L54.5918 42.7951L53.1224 41.7275H54.9387L55.5 40Z" fill="url(#paint2_linear_843_52988)"/>
<path d="M18 50L18.5613 51.7275H20.3776L18.9082 52.7951L19.4695 54.5225L18 53.4549L16.5305 54.5225L17.0918 52.7951L15.6224 51.7275H17.4387L18 50Z" fill="#FFF9D1"/>
<path d="M18 50L18.5613 51.7275H20.3776L18.9082 52.7951L19.4695 54.5225L18 53.4549L16.5305 54.5225L17.0918 52.7951L15.6224 51.7275H17.4387L18 50Z" fill="url(#paint3_linear_843_52988)"/>
<mask id="mask0_843_52988" style="mask-type:alpha" maskUnits="userSpaceOnUse" x="12" y="14" width="37" height="36">
<rect x="12.853" y="14.1177" width="35.2941" height="35.2941" fill="#D9D9D9"/>
</mask>
<g mask="url(#mask0_843_52988)">
<path d="M30.5003 44.9999L28.368 43.0882C25.8925 40.8578 23.8459 38.9338 22.2283 37.3161C20.6106 35.6985 19.3238 34.2463 18.368 32.9595C17.4121 31.6727 16.7442 30.4901 16.3643 29.4117C15.9844 28.3333 15.7944 27.2303 15.7944 26.1029C15.7944 23.799 16.5665 21.8749 18.1106 20.3308C19.6547 18.7867 21.5787 18.0146 23.8827 18.0146C25.1572 18.0146 26.3704 18.2843 27.5224 18.8235C28.6743 19.3627 29.667 20.1225 30.5003 21.1029C31.3337 20.1225 32.3263 19.3627 33.4783 18.8235C34.6302 18.2843 35.8435 18.0146 37.118 18.0146C39.4219 18.0146 41.3459 18.7867 42.89 20.3308C44.4341 21.8749 45.2062 23.799 45.2062 26.1029C45.2062 27.2303 45.0163 28.3333 44.6363 29.4117C44.2564 30.4901 43.5886 31.6727 42.6327 32.9595C41.6768 34.2463 40.39 35.6985 38.7724 37.3161C37.1547 38.9338 35.1082 40.8578 32.6327 43.0882L30.5003 44.9999Z" fill="url(#paint4_linear_843_52988)"/>
</g>
<defs>
<linearGradient id="paint0_linear_843_52988" x1="0.5" y1="30" x2="60.5" y2="30" gradientUnits="userSpaceOnUse">
<stop stop-color="#BF7B25"/>
<stop offset="0.572115" stop-color="#E7DC87"/>
<stop offset="1" stop-color="#AF8D4C"/>
</linearGradient>
<linearGradient id="paint1_linear_843_52988" x1="36.125" y1="6.25" x2="43" y2="8.75" gradientUnits="userSpaceOnUse">
<stop stop-color="#BF7B25"/>
<stop offset="0.572115" stop-color="#E7DC87"/>
<stop offset="1" stop-color="#AF8D4C"/>
</linearGradient>
<linearGradient id="paint2_linear_843_52988" x1="51.125" y1="40" x2="58" y2="42.5" gradientUnits="userSpaceOnUse">
<stop stop-color="#BF7B25"/>
<stop offset="0.572115" stop-color="#E7DC87"/>
<stop offset="1" stop-color="#AF8D4C"/>
</linearGradient>
<linearGradient id="paint3_linear_843_52988" x1="13.625" y1="50" x2="20.5" y2="52.5" gradientUnits="userSpaceOnUse">
<stop stop-color="#BF7B25"/>
<stop offset="0.572115" stop-color="#E7DC87"/>
<stop offset="1" stop-color="#AF8D4C"/>
</linearGradient>
<linearGradient id="paint4_linear_843_52988" x1="15.7944" y1="31.5073" x2="45.2062" y2="31.5073" gradientUnits="userSpaceOnUse">
<stop stop-color="#BF7B25"/>
<stop offset="0.572115" stop-color="#E7DC87"/>
<stop offset="1" stop-color="#AF8D4C"/>
</linearGradient>
</defs>
</svg>
