<svg width="31" height="31" viewBox="0 0 31 31" fill="none" xmlns="http://www.w3.org/2000/svg">
<rect x="0.210449" width="30.5792" height="30.5792" rx="15.2896" fill="url(#paint0_linear_833_19763)"/>
<rect x="0.710449" y="0.5" width="29.5792" height="29.5792" rx="14.7896" stroke="#A0C1D1" stroke-opacity="0.44"/>
<path d="M10.0564 16.521L12.0864 22.1396C12.0864 22.1396 12.3402 22.6653 12.6119 22.6653C12.8837 22.6653 16.9258 18.4602 16.9258 18.4602L21.4207 9.77832L10.1288 15.0706L10.0564 16.521Z" fill="#C8DAEA"/>
<path d="M12.7473 17.9619L12.3577 22.1034C12.3577 22.1034 12.1945 23.3724 13.4632 22.1034C14.732 20.8344 15.9463 19.8559 15.9463 19.8559" fill="#A9C6D8"/>
<path d="M10.0923 16.7212L5.91662 15.3607C5.91662 15.3607 5.41758 15.1582 5.57827 14.6991C5.61135 14.6045 5.67808 14.5239 5.87769 14.3854C6.80292 13.7405 23.0028 7.91785 23.0028 7.91785C23.0028 7.91785 23.4602 7.76372 23.73 7.86624C23.7967 7.8869 23.8568 7.92491 23.904 7.9764C23.9512 8.02788 23.9839 8.09098 23.9988 8.15925C24.0279 8.27983 24.0401 8.40388 24.035 8.52783C24.0337 8.63505 24.0207 8.73443 24.0109 8.89027C23.9122 10.4822 20.9596 22.3634 20.9596 22.3634C20.9596 22.3634 20.7829 23.0587 20.15 23.0825C19.9945 23.0875 19.8395 23.0612 19.6944 23.005C19.5492 22.9489 19.4169 22.8641 19.3052 22.7557C18.0632 21.6873 13.7703 18.8023 12.8217 18.1678C12.8003 18.1532 12.7822 18.1342 12.7688 18.112C12.7554 18.0899 12.7469 18.0651 12.7438 18.0394C12.7305 17.9726 12.8033 17.8897 12.8033 17.8897C12.8033 17.8897 20.2783 11.2453 20.4773 10.5478C20.4927 10.4938 20.4345 10.4671 20.3563 10.4908C19.8599 10.6734 11.2532 16.1086 10.3033 16.7084C10.235 16.7291 10.1627 16.7335 10.0923 16.7212Z" fill="white"/>
<defs>
<linearGradient id="paint0_linear_833_19763" x1="15.5" y1="30.5792" x2="15.5" y2="0" gradientUnits="userSpaceOnUse">
<stop stop-color="#1D93D2"/>
<stop offset="1" stop-color="#38B0E3"/>
</linearGradient>
</defs>
</svg>
