<svg width="34" height="34" viewBox="0 0 34 34" fill="none" xmlns="http://www.w3.org/2000/svg">
<rect width="34" height="34" rx="7.08333" fill="#251044"/>
<rect x="0.5" y="0.5" width="33" height="33" rx="6.58333" stroke="url(#paint0_linear_843_53153)" stroke-opacity="0.2"/>
<path d="M22.6667 3.54163L22.9847 4.52052H24.014L23.1813 5.12551L23.4994 6.1044L22.6667 5.49941L21.834 6.1044L22.152 5.12551L21.3193 4.52052H22.3486L22.6667 3.54163Z" fill="#FFF9D1"/>
<path d="M22.6667 3.54163L22.9847 4.52052H24.014L23.1813 5.12551L23.4994 6.1044L22.6667 5.49941L21.834 6.1044L22.152 5.12551L21.3193 4.52052H22.3486L22.6667 3.54163Z" fill="url(#paint1_linear_843_53153)"/>
<path d="M31.1667 22.6666L31.4847 23.6455H32.514L31.6813 24.2505L31.9994 25.2294L31.1667 24.6244L30.334 25.2294L30.652 24.2505L29.8193 23.6455H30.8486L31.1667 22.6666Z" fill="#FFF9D1"/>
<path d="M31.1667 22.6666L31.4847 23.6455H32.514L31.6813 24.2505L31.9994 25.2294L31.1667 24.6244L30.334 25.2294L30.652 24.2505L29.8193 23.6455H30.8486L31.1667 22.6666Z" fill="url(#paint2_linear_843_53153)"/>
<path d="M9.91667 28.3334L10.2347 29.3123H11.264L10.4313 29.9173L10.7494 30.8961L9.91667 30.2912L9.08397 30.8961L9.40203 29.9173L8.56934 29.3123H9.59861L9.91667 28.3334Z" fill="#FFF9D1"/>
<path d="M9.91667 28.3334L10.2347 29.3123H11.264L10.4313 29.9173L10.7494 30.8961L9.91667 30.2912L9.08397 30.8961L9.40203 29.9173L8.56934 29.3123H9.59861L9.91667 28.3334Z" fill="url(#paint3_linear_843_53153)"/>
<mask id="mask0_843_53153" style="mask-type:alpha" maskUnits="userSpaceOnUse" x="7" y="7" width="20" height="20">
<rect x="7" y="7" width="20" height="20" fill="#D9D9D9"/>
</mask>
<g mask="url(#mask0_843_53153)">
<path d="M9.5 15.0417V13.2708L13.2708 9.5H15.0417L9.5 15.0417ZM9.5 10.9583V9.5H10.9583L9.5 10.9583ZM20.4792 12.3542C20.3403 12.2014 20.191 12.0521 20.0312 11.9062C19.8715 11.7604 19.7083 11.6319 19.5417 11.5208L21.5625 9.5H23.3333L20.4792 12.3542ZM11.5833 19.4792L13.1875 17.875C13.2847 18.0278 13.3854 18.1667 13.4896 18.2917C13.5938 18.4167 13.7083 18.5347 13.8333 18.6458C13.4444 18.7431 13.0521 18.8646 12.6562 19.0104C12.2604 19.1562 11.9028 19.3125 11.5833 19.4792ZM21.5833 15.375V15.3333C21.5833 15.0694 21.5625 14.8125 21.5208 14.5625C21.4792 14.3125 21.4167 14.0694 21.3333 13.8333L24.5 10.6667V12.4583L21.5833 15.375ZM16.0833 10.8333L17.4375 9.5H19.2083L17.875 10.8333C17.7222 10.8056 17.5764 10.7847 17.4375 10.7708C17.2986 10.7569 17.1528 10.75 17 10.75C16.8472 10.75 16.6944 10.7569 16.5417 10.7708C16.3889 10.7847 16.2361 10.8056 16.0833 10.8333ZM9.5 19.1875V17.4167L12.5 14.4167C12.4722 14.5694 12.4514 14.7222 12.4375 14.875C12.4236 15.0278 12.4167 15.1806 12.4167 15.3333C12.4167 15.4861 12.4236 15.6319 12.4375 15.7708C12.4514 15.9097 12.4722 16.0486 12.5 16.1875L9.5 19.1875ZM24.2708 20.9167C24.1597 20.75 24.0312 20.5903 23.8854 20.4375C23.7396 20.2847 23.5833 20.1458 23.4167 20.0208L24.5 18.9375V20.7083L24.2708 20.9167ZM21.8542 19.2083C21.7569 19.1667 21.6597 19.1285 21.5625 19.0938C21.4653 19.059 21.3681 19.0278 21.2708 19C21.1458 18.9583 21.0243 18.9167 20.9062 18.875C20.7882 18.8333 20.6667 18.7986 20.5417 18.7708L24.5 14.7917V16.5833L21.8542 19.2083ZM17 18.6667C16.0833 18.6667 15.2986 18.3403 14.6458 17.6875C13.9931 17.0347 13.6667 16.25 13.6667 15.3333C13.6667 14.4167 13.9931 13.6319 14.6458 12.9792C15.2986 12.3264 16.0833 12 17 12C17.9167 12 18.7014 12.3264 19.3542 12.9792C20.0069 13.6319 20.3333 14.4167 20.3333 15.3333C20.3333 16.25 20.0069 17.0347 19.3542 17.6875C18.7014 18.3403 17.9167 18.6667 17 18.6667ZM10.3333 24.5V23.0208C10.3333 22.5486 10.4514 22.1111 10.6875 21.7083C10.9236 21.3056 11.25 21 11.6667 20.7917C12.375 20.4306 13.1771 20.125 14.0729 19.875C14.9688 19.625 15.9444 19.5 17 19.5C18.0556 19.5 19.0312 19.625 19.9271 19.875C20.8229 20.125 21.625 20.4306 22.3333 20.7917C22.75 21 23.0764 21.3056 23.3125 21.7083C23.5486 22.1111 23.6667 22.5486 23.6667 23.0208V24.5H10.3333Z" fill="url(#paint4_linear_843_53153)"/>
</g>
<defs>
<linearGradient id="paint0_linear_843_53153" x1="0" y1="17" x2="34" y2="17" gradientUnits="userSpaceOnUse">
<stop stop-color="#BF7B25"/>
<stop offset="0.572115" stop-color="#E7DC87"/>
<stop offset="1" stop-color="#AF8D4C"/>
</linearGradient>
<linearGradient id="paint1_linear_843_53153" x1="20.1875" y1="3.54163" x2="24.0833" y2="4.95829" gradientUnits="userSpaceOnUse">
<stop stop-color="#BF7B25"/>
<stop offset="0.572115" stop-color="#E7DC87"/>
<stop offset="1" stop-color="#AF8D4C"/>
</linearGradient>
<linearGradient id="paint2_linear_843_53153" x1="28.6875" y1="22.6666" x2="32.5833" y2="24.0833" gradientUnits="userSpaceOnUse">
<stop stop-color="#BF7B25"/>
<stop offset="0.572115" stop-color="#E7DC87"/>
<stop offset="1" stop-color="#AF8D4C"/>
</linearGradient>
<linearGradient id="paint3_linear_843_53153" x1="7.4375" y1="28.3334" x2="11.3333" y2="29.75" gradientUnits="userSpaceOnUse">
<stop stop-color="#BF7B25"/>
<stop offset="0.572115" stop-color="#E7DC87"/>
<stop offset="1" stop-color="#AF8D4C"/>
</linearGradient>
<linearGradient id="paint4_linear_843_53153" x1="9.5" y1="17" x2="24.5" y2="17" gradientUnits="userSpaceOnUse">
<stop stop-color="#BF7B25"/>
<stop offset="0.572115" stop-color="#E7DC87"/>
<stop offset="1" stop-color="#AF8D4C"/>
</linearGradient>
</defs>
</svg>
