<svg width="34" height="34" viewBox="0 0 34 34" fill="none" xmlns="http://www.w3.org/2000/svg">
<rect width="34" height="34" rx="7.08333" fill="#251044"/>
<rect x="0.5" y="0.5" width="33" height="33" rx="6.58333" stroke="url(#paint0_linear_818_18878)" stroke-opacity="0.2"/>
<path d="M22.6667 3.54163L22.9847 4.52052H24.014L23.1813 5.12551L23.4994 6.1044L22.6667 5.49941L21.834 6.1044L22.152 5.12551L21.3193 4.52052H22.3486L22.6667 3.54163Z" fill="#FFF9D1"/>
<path d="M22.6667 3.54163L22.9847 4.52052H24.014L23.1813 5.12551L23.4994 6.1044L22.6667 5.49941L21.834 6.1044L22.152 5.12551L21.3193 4.52052H22.3486L22.6667 3.54163Z" fill="url(#paint1_linear_818_18878)"/>
<path d="M31.1667 22.6666L31.4847 23.6455H32.514L31.6813 24.2505L31.9994 25.2294L31.1667 24.6244L30.334 25.2294L30.652 24.2505L29.8193 23.6455H30.8486L31.1667 22.6666Z" fill="#FFF9D1"/>
<path d="M31.1667 22.6666L31.4847 23.6455H32.514L31.6813 24.2505L31.9994 25.2294L31.1667 24.6244L30.334 25.2294L30.652 24.2505L29.8193 23.6455H30.8486L31.1667 22.6666Z" fill="url(#paint2_linear_818_18878)"/>
<path d="M9.91667 28.3334L10.2347 29.3123H11.264L10.4313 29.9173L10.7494 30.8961L9.91667 30.2912L9.08397 30.8961L9.40203 29.9173L8.56934 29.3123H9.59861L9.91667 28.3334Z" fill="#FFF9D1"/>
<path d="M9.91667 28.3334L10.2347 29.3123H11.264L10.4313 29.9173L10.7494 30.8961L9.91667 30.2912L9.08397 30.8961L9.40203 29.9173L8.56934 29.3123H9.59861L9.91667 28.3334Z" fill="url(#paint3_linear_818_18878)"/>
<mask id="mask0_818_18878" style="mask-type:alpha" maskUnits="userSpaceOnUse" x="7" y="7" width="20" height="20">
<rect x="7" y="7" width="20" height="20" fill="#D9D9D9"/>
</mask>
<g mask="url(#mask0_818_18878)">
<path d="M16.2501 22.8334H17.7084V21.7917C18.4029 21.6667 19.0001 21.3959 19.5001 20.9792C20.0001 20.5625 20.2501 19.9445 20.2501 19.125C20.2501 18.5417 20.0834 18.007 19.7501 17.5209C19.4167 17.0347 18.7501 16.6111 17.7501 16.25C16.9167 15.9722 16.3404 15.7292 16.0209 15.5209C15.7015 15.3125 15.5417 15.0278 15.5417 14.6667C15.5417 14.3056 15.6702 14.0209 15.9272 13.8125C16.1841 13.6042 16.5556 13.5 17.0417 13.5C17.4862 13.5 17.8334 13.6077 18.0834 13.8229C18.3334 14.0382 18.514 14.3056 18.6251 14.625L19.9584 14.0834C19.8056 13.5972 19.5244 13.1736 19.1147 12.8125C18.7049 12.4514 18.2501 12.25 17.7501 12.2084V11.1667H16.2917V12.2084C15.5973 12.3611 15.0556 12.6667 14.6667 13.125C14.2779 13.5834 14.0834 14.0972 14.0834 14.6667C14.0834 15.3195 14.2744 15.8472 14.6563 16.25C15.0383 16.6528 15.639 17 16.4584 17.2917C17.3334 17.6111 17.9411 17.8959 18.2813 18.1459C18.6216 18.3959 18.7917 18.7222 18.7917 19.125C18.7917 19.5834 18.6286 19.9202 18.3022 20.1354C17.9758 20.3507 17.5834 20.4584 17.1251 20.4584C16.6667 20.4584 16.2605 20.316 15.9063 20.0313C15.5522 19.7465 15.2917 19.3195 15.1251 18.75L13.7501 19.2917C13.9445 19.9584 14.2466 20.4965 14.6563 20.9063C15.0661 21.316 15.5973 21.5972 16.2501 21.75V22.8334ZM17.0001 25.3334C15.8473 25.3334 14.764 25.1146 13.7501 24.6771C12.7362 24.2396 11.8542 23.6459 11.1042 22.8959C10.3542 22.1459 9.7605 21.2639 9.323 20.25C8.8855 19.2361 8.66675 18.1528 8.66675 17C8.66675 15.8472 8.8855 14.7639 9.323 13.75C9.7605 12.7361 10.3542 11.8542 11.1042 11.1042C11.8542 10.3542 12.7362 9.76044 13.7501 9.32294C14.764 8.88544 15.8473 8.66669 17.0001 8.66669C18.1529 8.66669 19.2362 8.88544 20.2501 9.32294C21.264 9.76044 22.1459 10.3542 22.8959 11.1042C23.6459 11.8542 24.2397 12.7361 24.6772 13.75C25.1147 14.7639 25.3334 15.8472 25.3334 17C25.3334 18.1528 25.1147 19.2361 24.6772 20.25C24.2397 21.2639 23.6459 22.1459 22.8959 22.8959C22.1459 23.6459 21.264 24.2396 20.2501 24.6771C19.2362 25.1146 18.1529 25.3334 17.0001 25.3334Z" fill="url(#paint4_linear_818_18878)"/>
</g>
<defs>
<linearGradient id="paint0_linear_818_18878" x1="0" y1="17" x2="34" y2="17" gradientUnits="userSpaceOnUse">
<stop stop-color="#BF7B25"/>
<stop offset="0.572115" stop-color="#E7DC87"/>
<stop offset="1" stop-color="#AF8D4C"/>
</linearGradient>
<linearGradient id="paint1_linear_818_18878" x1="20.1875" y1="3.54163" x2="24.0833" y2="4.95829" gradientUnits="userSpaceOnUse">
<stop stop-color="#BF7B25"/>
<stop offset="0.572115" stop-color="#E7DC87"/>
<stop offset="1" stop-color="#AF8D4C"/>
</linearGradient>
<linearGradient id="paint2_linear_818_18878" x1="28.6875" y1="22.6666" x2="32.5833" y2="24.0833" gradientUnits="userSpaceOnUse">
<stop stop-color="#BF7B25"/>
<stop offset="0.572115" stop-color="#E7DC87"/>
<stop offset="1" stop-color="#AF8D4C"/>
</linearGradient>
<linearGradient id="paint3_linear_818_18878" x1="7.4375" y1="28.3334" x2="11.3333" y2="29.75" gradientUnits="userSpaceOnUse">
<stop stop-color="#BF7B25"/>
<stop offset="0.572115" stop-color="#E7DC87"/>
<stop offset="1" stop-color="#AF8D4C"/>
</linearGradient>
<linearGradient id="paint4_linear_818_18878" x1="8.66675" y1="17" x2="25.3334" y2="17" gradientUnits="userSpaceOnUse">
<stop stop-color="#BF7B25"/>
<stop offset="0.572115" stop-color="#E7DC87"/>
<stop offset="1" stop-color="#AF8D4C"/>
</linearGradient>
</defs>
</svg>
